<?xml version="1.0" encoding="UTF-8" standalone="no"?>
<!-- Created with Inkscape (http://www.inkscape.org/) -->

<svg
   width="38.513611mm"
   height="13.423035mm"
   viewBox="0 0 38.513611 13.423035"
   version="1.1"
   id="svg5"
   inkscape:export-filename="srilogo.svg"
   inkscape:export-xdpi="96"
   inkscape:export-ydpi="96"
   xmlns:inkscape="http://www.inkscape.org/namespaces/inkscape"
   xmlns:sodipodi="http://sodipodi.sourceforge.net/DTD/sodipodi-0.dtd"
   xmlns:xlink="http://www.w3.org/1999/xlink"
   xmlns="http://www.w3.org/2000/svg"
   xmlns:svg="http://www.w3.org/2000/svg">
  <sodipodi:namedview
     id="namedview7"
     pagecolor="#ffffff"
     bordercolor="#000000"
     borderopacity="0.25"
     inkscape:showpageshadow="2"
     inkscape:pageopacity="0.0"
     inkscape:pagecheckerboard="0"
     inkscape:deskcolor="#d1d1d1"
     inkscape:document-units="mm"
     showgrid="false" />
  <defs
     id="defs2">
    <linearGradient
       inkscape:collect="always"
       id="linearGradient18198">
      <stop
         style="stop-color:#00ff3a;stop-opacity:1;"
         offset="0"
         id="stop18192" />
      <stop
         style="stop-color:#ffe726;stop-opacity:1;"
         offset="0.40884718"
         id="stop18194" />
      <stop
         style="stop-color:#ff004c;stop-opacity:1;"
         offset="0.80965143"
         id="stop18196" />
    </linearGradient>
    <linearGradient
       inkscape:collect="always"
       id="linearGradient12915">
      <stop
         style="stop-color:#ffe726;stop-opacity:1;"
         offset="0"
         id="stop12919" />
      <stop
         style="stop-color:#ff1313;stop-opacity:1;"
         offset="0.47922254"
         id="stop18202" />
      <stop
         style="stop-color:#6c00ff;stop-opacity:1;"
         offset="1"
         id="stop12913" />
    </linearGradient>
    <linearGradient
       inkscape:collect="always"
       xlink:href="#linearGradient18198"
       id="linearGradient12917"
       x1="63.408142"
       y1="140.46194"
       x2="93.837746"
       y2="140.46194"
       gradientUnits="userSpaceOnUse"
       gradientTransform="translate(-3.1145657,12.958818)" />
    <linearGradient
       inkscape:collect="always"
       xlink:href="#linearGradient12915"
       id="linearGradient15975"
       gradientUnits="userSpaceOnUse"
       gradientTransform="translate(8.6119031,4.950141)"
       x1="63.408142"
       y1="140.46194"
       x2="93.837746"
       y2="140.46194" />
    <linearGradient
       inkscape:collect="always"
       xlink:href="#linearGradient18198"
       id="linearGradient25745"
       gradientUnits="userSpaceOnUse"
       gradientTransform="translate(-3.1145657,12.958818)"
       x1="63.408142"
       y1="140.46194"
       x2="93.837746"
       y2="140.46194" />
    <linearGradient
       inkscape:collect="always"
       xlink:href="#linearGradient18198"
       id="linearGradient25747"
       gradientUnits="userSpaceOnUse"
       gradientTransform="translate(-3.1145657,12.958818)"
       x1="63.408142"
       y1="140.46194"
       x2="93.837746"
       y2="140.46194" />
    <linearGradient
       inkscape:collect="always"
       xlink:href="#linearGradient18198"
       id="linearGradient25749"
       gradientUnits="userSpaceOnUse"
       gradientTransform="translate(-3.1145657,12.958818)"
       x1="63.408142"
       y1="140.46194"
       x2="93.837746"
       y2="140.46194" />
    <linearGradient
       inkscape:collect="always"
       xlink:href="#linearGradient12915"
       id="linearGradient25751"
       gradientUnits="userSpaceOnUse"
       gradientTransform="translate(8.6119031,4.950141)"
       x1="63.408142"
       y1="140.46194"
       x2="93.837746"
       y2="140.46194" />
    <linearGradient
       inkscape:collect="always"
       xlink:href="#linearGradient12915"
       id="linearGradient25753"
       gradientUnits="userSpaceOnUse"
       gradientTransform="translate(8.6119031,4.950141)"
       x1="63.408142"
       y1="140.46194"
       x2="93.837746"
       y2="140.46194" />
    <linearGradient
       inkscape:collect="always"
       xlink:href="#linearGradient12915"
       id="linearGradient25755"
       gradientUnits="userSpaceOnUse"
       gradientTransform="translate(8.6119031,4.950141)"
       x1="63.408142"
       y1="140.46194"
       x2="93.837746"
       y2="140.46194" />
    <linearGradient
       inkscape:collect="always"
       xlink:href="#linearGradient12915"
       id="linearGradient25757"
       gradientUnits="userSpaceOnUse"
       gradientTransform="translate(8.6119031,4.950141)"
       x1="63.408142"
       y1="140.46194"
       x2="93.837746"
       y2="140.46194" />
    <linearGradient
       inkscape:collect="always"
       xlink:href="#linearGradient12915"
       id="linearGradient25759"
       gradientUnits="userSpaceOnUse"
       gradientTransform="translate(8.6119031,4.950141)"
       x1="63.408142"
       y1="140.46194"
       x2="93.837746"
       y2="140.46194" />
    <linearGradient
       inkscape:collect="always"
       xlink:href="#linearGradient12915"
       id="linearGradient25761"
       gradientUnits="userSpaceOnUse"
       gradientTransform="translate(8.6119031,4.950141)"
       x1="63.408142"
       y1="140.46194"
       x2="93.837746"
       y2="140.46194" />
    <linearGradient
       inkscape:collect="always"
       xlink:href="#linearGradient12915"
       id="linearGradient25763"
       gradientUnits="userSpaceOnUse"
       gradientTransform="translate(8.6119031,4.950141)"
       x1="63.408142"
       y1="140.46194"
       x2="93.837746"
       y2="140.46194" />
  </defs>
  <g
     inkscape:label="Ebene 1"
     inkscape:groupmode="layer"
     id="layer1"
     transform="translate(-60.267106,-146.70924)">
    <g
       aria-label="SRI"
       id="text236"
       style="font-weight:bold;font-size:19.2428px;font-family:Bahnschrift;-inkscape-font-specification:'Bahnschrift Bold';fill:url(#linearGradient12917);stroke:#280b0b;stroke-width:0.203"
       inkscape:export-filename="srilogo.svg"
       inkscape:export-xdpi="96"
       inkscape:export-ydpi="96">
      <path
         d="m 60.395074,156.12209 3.655004,-0.65772 q 0.460399,1.55033 2.367767,1.55033 1.484552,0 1.484552,-0.78926 0,-0.41342 -0.347648,-0.63892 -0.338253,-0.2349 -1.221467,-0.41342 -3.373128,-0.64832 -4.331509,-1.69126 -0.958382,-1.04295 -0.958382,-2.45233 0,-1.81341 1.371801,-3.01608 1.381197,-1.20268 3.965069,-1.20268 3.91809,0 5.17714,3.14763 l -3.260377,0.98657 q -0.507378,-1.28724 -2.057701,-1.28724 -1.287238,0 -1.287238,0.79865 0,0.35704 0.291273,0.55436 0.291272,0.19731 1.127507,0.37583 2.301995,0.48859 3.269773,0.86443 0.967777,0.37583 1.616094,1.28723 0.648317,0.90201 0.648317,2.13287 0,1.94495 -1.57851,3.15702 -1.578511,1.20268 -4.143592,1.20268 -4.688553,0 -5.787873,-3.90869 z"
         style="font-weight:normal;font-family:'Franklin Gothic Heavy';-inkscape-font-specification:'Franklin Gothic Heavy, Normal';fill:url(#linearGradient25745)"
         id="path25590" />
      <path
         d="m 77.805192,159.83347 h -1.922364 l -0.822689,-2.15801 h -0.545703 v 2.15801 h -1.732195 v -5.64307 h 2.947625 q 0.975651,0 1.513087,0.45888 0.541569,0.45476 0.541569,1.20303 0,0.48783 -0.198438,0.86403 -0.198437,0.37207 -0.802018,0.65733 z m -3.290756,-3.36518 h 0.740007 q 0.326595,0 0.525032,-0.13642 0.198438,-0.13643 0.198438,-0.40101 0,-0.54157 -0.665593,-0.54157 h -0.797884 z"
         style="font-weight:normal;font-size:8.46667px;font-family:'Franklin Gothic Heavy';-inkscape-font-specification:'Franklin Gothic Heavy, Normal';fill:url(#linearGradient25747)"
         id="path25592" />
      <path
         d="m 80.355941,154.1904 v 5.64307 h -1.732195 v -5.64307 z"
         style="font-weight:normal;font-size:8.46667px;font-family:'Franklin Gothic Heavy';-inkscape-font-specification:'Franklin Gothic Heavy, Normal';fill:url(#linearGradient25749)"
         id="path25594" />
    </g>
    <g
       aria-label="emantic"
       id="text236-3"
       style="font-size:7.05556px;font-family:'Franklin Gothic Heavy';-inkscape-font-specification:'Franklin Gothic Heavy, Normal';fill:url(#linearGradient15975);stroke:#280b0b;stroke-width:0.15">
      <path
         d="m 76.054124,150.17889 h -2.351277 q -0.0036,0.0977 -0.0036,0.17002 0,0.39067 0.206189,0.58962 0.209806,0.19896 0.499194,0.19896 0.538985,0 0.647505,-0.57516 l 0.976684,0.0724 q -0.40876,1.26607 -1.660363,1.26607 -0.546219,0 -0.929658,-0.21704 -0.379822,-0.22066 -0.629419,-0.64027 -0.24598,-0.41962 -0.24598,-1.00563 0,-0.87178 0.495577,-1.40715 0.499194,-0.53536 1.280542,-0.53536 0.705383,0 1.208194,0.49919 0.506429,0.49558 0.506429,1.5844 z m -2.354894,-0.6258 h 1.298628 q -0.05064,-0.75241 -0.618567,-0.75241 -0.607714,0 -0.680061,0.75241 z"
         style="font-size:7.40833px;font-family:'Franklin Gothic Demi';-inkscape-font-specification:'Franklin Gothic Demi, Normal';fill:url(#linearGradient25751)"
         id="path25672" />
      <path
         d="m 81.950402,151.82478 h -1.07797 v -2.02209 q 0,-0.42685 -0.02532,-0.55346 -0.02532,-0.13022 -0.133842,-0.21342 -0.104903,-0.0868 -0.293006,-0.0868 -0.17725,0 -0.361734,0.12661 -0.184485,0.12661 -0.184485,0.72709 v 2.02209 h -1.074353 v -2.02209 q 0,-0.4377 -0.03979,-0.56431 -0.03979,-0.13023 -0.151928,-0.20981 -0.108521,-0.0796 -0.278536,-0.0796 -0.278536,0 -0.415995,0.17725 -0.133842,0.17363 -0.133842,0.67645 v 2.02209 h -1.045414 v -3.65352 h 1.012858 v 0.55707 q 0.256832,-0.63303 1.027327,-0.63303 0.698148,0 1.00924,0.63303 0.303857,-0.63303 1.059883,-0.63303 0.361735,0 0.622184,0.14831 0.260449,0.14831 0.372587,0.38705 0.112138,0.23875 0.112138,0.82114 z"
         style="font-size:7.40833px;font-family:'Franklin Gothic Demi';-inkscape-font-specification:'Franklin Gothic Demi, Normal';fill:url(#linearGradient25753)"
         id="path25674" />
      <path
         d="m 86.030772,151.82478 h -1.045414 q -0.05064,-0.21704 -0.05064,-0.57154 -0.274919,0.39068 -0.549837,0.5209 -0.271301,0.12661 -0.618567,0.12661 -0.513663,0 -0.83199,-0.27854 -0.314709,-0.27853 -0.314709,-0.74879 0,-0.34365 0.184485,-0.63304 0.184484,-0.28938 0.593245,-0.45216 0.40876,-0.1664 1.490347,-0.24598 v -0.20981 q 0,-0.53175 -0.53175,-0.53175 -0.567924,0 -0.633036,0.53175 l -0.994771,-0.094 q 0.09767,-0.62218 0.589628,-0.88263 0.491959,-0.26045 1.114143,-0.26045 0.372587,0 0.701766,0.0868 0.329179,0.0868 0.513664,0.26045 0.184484,0.17364 0.249597,0.36897 0.06511,0.19172 0.06511,0.67283 v 1.65674 q 0,0.47749 0.06873,0.68368 z m -1.143083,-1.75079 q -1.13223,0.11213 -1.13223,0.68368 0,0.19171 0.119373,0.33279 0.119372,0.13746 0.340031,0.13746 0.28577,0 0.47749,-0.23513 0.195336,-0.23874 0.195336,-0.58601 z"
         style="font-size:7.40833px;font-family:'Franklin Gothic Demi';-inkscape-font-specification:'Franklin Gothic Demi, Normal';fill:url(#linearGradient25755)"
         id="path25676" />
      <path
         d="m 90.027941,151.82478 h -1.07797 v -2.05103 q 0,-0.37259 -0.02894,-0.51005 -0.02894,-0.13746 -0.141077,-0.23151 -0.112137,-0.0977 -0.282153,-0.0977 -0.567923,0 -0.567923,0.83923 v 2.05103 h -1.07797 v -3.65352 h 1.002005 v 0.61857 q 0.249597,-0.44132 0.49196,-0.56793 0.242362,-0.1266 0.524515,-0.1266 0.520898,0 0.839225,0.28215 0.318327,0.27854 0.318327,1.09967 z"
         style="font-size:7.40833px;font-family:'Franklin Gothic Demi';-inkscape-font-specification:'Franklin Gothic Demi, Normal';fill:url(#linearGradient25757)"
         id="path25678" />
      <path
         d="m 92.129621,149.01049 v 1.5446 q 0,0.28939 0.08682,0.38706 0.08682,0.0977 0.40876,0.0977 0.148311,0 0.343648,-0.0145 v 0.79943 q -0.470255,0.0796 -0.676444,0.0796 -0.672827,0 -0.95498,-0.25683 -0.282153,-0.26045 -0.282153,-0.93689 v -1.70015 h -0.578776 v -0.83923 h 0.640271 l 0.08682,-1.07797 0.926041,-0.0724 v 1.15032 h 0.788582 v 0.83923 z"
         style="font-size:7.40833px;font-family:'Franklin Gothic Demi';-inkscape-font-specification:'Franklin Gothic Demi, Normal';fill:url(#linearGradient25759)"
         id="path25680" />
      <path
         d="m 94.60027,148.17126 v 3.65352 H 93.5223 v -3.65352 z m 0,-1.38544 v 1.07797 H 93.5223 v -1.07797 z"
         style="font-size:7.40833px;font-family:'Franklin Gothic Demi';-inkscape-font-specification:'Franklin Gothic Demi, Normal';fill:url(#linearGradient25761)"
         id="path25682" />
      <path
         d="m 98.698725,150.45381 q -0.06149,0.6475 -0.513663,1.04903 -0.448551,0.39791 -1.161169,0.39791 -0.774113,0 -1.262455,-0.51005 -0.484724,-0.51366 -0.484724,-1.37097 0,-0.85732 0.495576,-1.38907 0.499194,-0.53536 1.331185,-0.53536 0.669209,0 1.106908,0.40152 0.441317,0.40153 0.488342,1.00563 l -1.005623,0.0579 q -0.05064,-0.65835 -0.571541,-0.65835 -0.64027,0 -0.64027,1.04903 0,0.69815 0.17725,0.88625 0.180867,0.1881 0.437699,0.1881 0.499194,0 0.596862,-0.63304 z"
         style="font-size:7.40833px;font-family:'Franklin Gothic Demi';-inkscape-font-specification:'Franklin Gothic Demi, Normal';fill:url(#linearGradient25763)"
         id="path25684" />
    </g>
  </g>
</svg>
